<svg width="30" height="30" viewBox="0 0 43 45" fill="none" xmlns="http://www.w3.org/2000/svg">
<path d="M10.4451 2C7.70095 2.26445 5.85324 2.85895 4.47273 4.2058C2 6.61865 2 10.5034 2 18.2749V26.5159C2 34.2854 2 38.1722 4.47273 40.5871C6.94545 43.002 10.9271 43 18.8882 43H23.1118C31.0729 43 35.0545 43 37.5273 40.5871C39.7727 38.3936 39.9811 35.0173 40 28.6028" stroke="{{ color }}" stroke-width="4" stroke-linecap="round" stroke-linejoin="round"/>
<path d="M17.3031 12.9261L19.4693 20.6778C20.6787 23.1362 22.1969 23.7785 25.9698 24C28.9696 23.9247 30.7103 23.5615 32.1961 22.237C33.209 21.3334 33.6668 19.9713 33.8893 18.6159L34.6322 14.0335M40.0486 9.60394V20.6778M13.1458 8.34816C16.5732 5.43129 19.6269 3.86544 25.9612 2.14235C26.6758 1.94887 27.4276 1.95269 28.1403 2.15342C33.7468 3.73477 36.7746 5.13894 40.8304 8.26178C41.0032 8.39467 41.055 8.64272 40.9341 8.82655C39.6102 10.8243 36.6537 12.4433 29.4015 15.3269C27.891 15.923 26.2169 15.9135 24.7129 15.3003C16.99 12.1554 13.4395 10.4721 13.0076 8.72467C12.9935 8.65493 12.9991 8.58254 13.0235 8.51589C13.048 8.44925 13.0904 8.39109 13.1458 8.34816Z" stroke="{{ color }}" stroke-width="4" stroke-linecap="round" stroke-linejoin="round"/>
</svg>

