<svg width="53" height="53" viewBox="0 0 53 53" fill="none" xmlns="http://www.w3.org/2000/svg">
<rect width="53" height="53" rx="9" fill="white"/>
<path d="M32.2406 14.6895C32.002 14.471 31.718 14.2976 31.4052 14.1793C31.0924 14.0609 30.7568 14 30.4179 14C30.079 14 29.7435 14.0609 29.4307 14.1793C29.1178 14.2976 28.8339 14.471 28.5952 14.6895L15.7594 26.3449C15.5187 26.5616 15.3278 26.8195 15.1974 27.1035C15.0671 27.3876 15 27.6923 15 28C15 28.3077 15.0671 28.6124 15.1974 28.8965C15.3278 29.1805 15.5187 29.4384 15.7594 29.6551L28.5952 41.3105C28.8339 41.529 29.1178 41.7024 29.4307 41.8207C29.7435 41.9391 30.079 42 30.4179 42C30.7568 42 31.0924 41.9391 31.4052 41.8207C31.718 41.7024 32.002 41.529 32.2406 41.3105C32.4813 41.0938 32.6722 40.8359 32.8026 40.5519C32.9329 40.2678 33 39.9631 33 39.6554C33 39.3477 32.9329 39.043 32.8026 38.7589C32.6722 38.4749 32.4813 38.217 32.2406 38.0003L21.2018 28L32.2406 17.9997C32.4813 17.783 32.6722 17.5251 32.8026 17.2411C32.9329 16.957 33 16.6523 33 16.3446C33 16.0369 32.9329 15.7322 32.8026 15.4481C32.6722 15.1641 32.4813 14.9062 32.2406 14.6895Z" fill="#605BCD"/>
</svg>
