<svg width="35" height="31" viewBox="0 0 35 31" fill="none" xmlns="http://www.w3.org/2000/svg">
<path d="M33.9705 1.05807C34.6042 1.76397 34.974 2.73751 34.9987 3.76463C35.0234 4.79175 34.7008 5.78837 34.102 6.53537L15.4641 29.7881C15.1621 30.1642 14.7991 30.4653 14.3966 30.6734C13.9941 30.8815 13.5604 30.9924 13.1209 30.9996C12.6814 31.0068 12.2452 30.9102 11.8379 30.7154C11.4307 30.5207 11.0607 30.2317 10.7499 29.8656L0.882742 18.2392C0.301766 17.5046 -0.0145216 16.5329 0.000512419 15.5289C0.0155465 14.5249 0.360729 13.5669 0.963338 12.8569C1.56595 12.1468 2.37893 11.7401 3.23102 11.7224C4.0831 11.7047 4.90776 12.0774 5.53125 12.7619L13.0083 21.5669L29.322 1.21309C29.921 0.466407 30.7473 0.0306225 31.619 0.00155299C32.4907 -0.0275165 33.3365 0.352509 33.9705 1.05807Z" fill="white"/>
</svg>
