<svg width="30" height="30" viewBox="0 0 45 49" fill="none" xmlns="http://www.w3.org/2000/svg">
<path d="M15.9354 17C15.4845 17 15.0521 17.2107 14.7333 17.5858C14.4145 17.9609 14.2354 18.4696 14.2354 19C14.2354 19.5304 14.4145 20.0391 14.7333 20.4142C15.0521 20.7893 15.4845 21 15.9354 21H29.5354C29.9862 21 30.4186 20.7893 30.7374 20.4142C31.0562 20.0391 31.2354 19.5304 31.2354 19C31.2354 18.4696 31.0562 17.9609 30.7374 17.5858C30.4186 17.2107 29.9862 17 29.5354 17H15.9354Z" fill="white"/>
<path fill-rule="evenodd" clip-rule="evenodd" d="M22.1067 0C17.4292 0 13.7445 -7.64105e-08 10.8653 0.394273C7.9094 0.799941 5.55145 1.6523 3.69894 3.5439C1.84869 5.43321 1.01833 7.83304 0.621198 10.8414C0.235352 13.779 0.235352 17.5372 0.235352 22.314V33.9325C0.235352 37.3693 0.235351 40.0882 0.451967 42.137C0.666326 44.1608 1.12438 45.9863 2.43761 47.2079C3.4891 48.1879 4.82038 48.8032 6.24192 48.9696C8.01771 49.1747 9.67617 48.3178 11.3121 47.1464C12.966 45.9658 14.972 44.1722 17.5037 41.9114L17.5849 41.8385C18.7582 40.7901 19.5525 40.0836 20.2159 39.5914C20.8567 39.1196 21.247 38.9487 21.5765 38.8803C22.0115 38.7937 22.4592 38.7937 22.8942 38.8803C23.2237 38.9487 23.6163 39.1196 24.2548 39.5914C24.9182 40.0813 25.7125 40.7901 26.8858 41.8385L26.9693 41.9114C29.4987 44.1722 31.5047 45.9658 33.1586 47.1486C34.7945 48.3178 36.453 49.1747 38.2288 48.9696C39.6497 48.8045 40.9819 48.1876 42.0331 47.2079C43.3441 45.9863 43.8044 44.1608 44.0187 42.137C44.2354 40.0882 44.2354 37.3693 44.2354 33.9325V22.314C44.2354 17.5372 44.2354 13.7768 43.8495 10.8414C43.4524 7.83304 42.622 5.43321 40.7718 3.5439C38.9193 1.6523 36.5613 0.799941 33.6054 0.394273C30.7262 -7.64105e-08 27.0415 0 22.364 0H22.1067ZM6.10202 5.94828C7.22345 4.8042 8.74653 4.13645 11.3188 3.78319C13.943 3.42311 17.3976 3.41855 22.2331 3.41855C27.0686 3.41855 30.5231 3.42311 33.1474 3.78319C35.7197 4.13645 37.2427 4.8042 38.3642 5.94828C39.4879 7.09463 40.1445 8.65577 40.492 11.2926C40.844 13.9773 40.8485 17.5075 40.8485 22.4439V33.8231C40.8485 37.3921 40.8462 39.9309 40.6522 41.7724C40.4491 43.664 40.0813 44.3728 39.7383 44.6941C39.2103 45.1841 38.5469 45.4918 37.8429 45.5715C37.3917 45.624 36.638 45.4485 35.1127 44.3591C33.628 43.2948 31.7574 41.6288 29.1264 39.2769L29.0678 39.2244C27.9666 38.2422 27.055 37.4286 26.2495 36.8315C25.4079 36.2116 24.5595 35.733 23.5599 35.5301C22.6841 35.352 21.7821 35.352 20.9063 35.5301C19.9067 35.7352 19.0561 36.2116 18.2167 36.8337C17.4111 37.4263 16.4996 38.2422 15.3984 39.2244L15.3398 39.2769C12.7088 41.6288 10.8382 43.2948 9.35351 44.3591C7.82817 45.4485 7.07453 45.624 6.62325 45.5715C5.91532 45.4895 5.25155 45.1822 4.72786 44.6941C4.38489 44.3728 4.01484 43.664 3.81627 41.7724C3.61997 39.9287 3.61771 37.3921 3.61771 33.8231V22.4416C3.61771 17.5075 3.62222 13.9773 3.97422 11.2926C4.32171 8.65577 4.97833 7.09463 6.10202 5.94828Z" fill="white"/>
</svg>
