<svg width="30" height="30" viewBox="0 0 48 49" fill="none" xmlns="http://www.w3.org/2000/svg">
<path d="M45.4844 1.21105C45.4844 1.21105 44.9869 0.706344 46.8009 2.54039C48.6149 4.37444 48.3405 7.62572 46.1828 9.80224C44.0252 11.9788 19.035 37.2161 19.035 37.2161L10.2393 40.4651C9.13482 40.8752 8.05935 40.3435 7.84068 39.2822C7.76679 38.8973 7.80158 38.4991 7.94109 38.1331L11.2211 29.1747L38.2931 1.83516C40.4507 -0.341364 43.6704 -0.623005 45.4844 1.21105ZM17.8502 3.93734C18.1432 3.93734 18.4333 3.99562 18.704 4.10885C18.9747 4.22208 19.2207 4.38804 19.4279 4.59726C19.6351 4.80649 19.7995 5.05487 19.9116 5.32823C20.0237 5.6016 20.0814 5.89458 20.0814 6.19047C20.0814 6.48636 20.0237 6.77934 19.9116 7.05271C19.7995 7.32607 19.6351 7.57445 19.4279 7.78368C19.2207 7.9929 18.9747 8.15886 18.704 8.27209C18.4333 8.38532 18.1432 8.4436 17.8502 8.4436H8.92508C7.74154 8.4436 6.60648 8.91837 5.76959 9.76346C4.9327 10.6085 4.46254 11.7547 4.46254 12.9499V39.9875C4.46254 41.1826 4.9327 42.3288 5.76959 43.1739C6.60648 44.019 7.74154 44.4937 8.92508 44.4937H35.7003C36.8839 44.4937 38.0189 44.019 38.8558 43.1739C39.6927 42.3288 40.1629 41.1826 40.1629 39.9875V30.9749C40.1629 30.3774 40.3979 29.8043 40.8164 29.3817C41.2348 28.9592 41.8024 28.7218 42.3941 28.7218C42.9859 28.7218 43.5534 28.9592 43.9719 29.3817C44.3903 29.8043 44.6254 30.3774 44.6254 30.9749V39.9875C44.6254 42.3777 43.6851 44.6701 42.0113 46.3603C40.3375 48.0505 38.0674 49 35.7003 49H8.92508C6.558 49 4.28787 48.0505 2.6141 46.3603C0.940318 44.6701 0 42.3777 0 39.9875V12.9499C0 10.5596 0.940318 8.26722 2.6141 6.57705C4.28787 4.88687 6.558 3.93734 8.92508 3.93734H17.8502Z" fill="{{ color }}"/>
</svg>
