<svg width="32" height="32" viewBox="0 0 32 32" fill="none" xmlns="http://www.w3.org/2000/svg">
<path d="M4.77124 0.785398L16 12.0137L27.1706 0.843576C27.4173 0.580954 27.7146 0.370867 28.0445 0.22591C28.3744 0.0809537 28.7302 0.00411416 29.0905 0C29.862 0 30.602 0.30647 31.1475 0.851992C31.693 1.39751 31.9995 2.1374 31.9995 2.90888C32.0063 3.26552 31.9401 3.61978 31.8051 3.94992C31.67 4.28006 31.4689 4.57912 31.2141 4.82874L19.8981 15.9989L31.2141 27.3144C31.6935 27.7834 31.9747 28.4186 31.9995 29.0888C31.9995 29.8603 31.693 30.6002 31.1475 31.1457C30.602 31.6912 29.862 31.9977 29.0905 31.9977C28.7198 32.0131 28.3499 31.9512 28.0043 31.816C27.6588 31.6808 27.3452 31.4752 27.0833 31.2123L16 19.984L4.80033 31.1832C4.55454 31.4371 4.2609 31.6398 3.93636 31.7795C3.61183 31.9193 3.26282 31.9935 2.90948 31.9977C2.13796 31.9977 1.39805 31.6912 0.852501 31.1457C0.306957 30.6002 0.000473314 29.8603 0.000473314 29.0888C-0.00630902 28.7322 0.0598618 28.3779 0.194926 28.0478C0.329989 27.7176 0.531096 27.4186 0.785905 27.169L12.1019 15.9989L0.785905 4.6833C0.306457 4.21427 0.0253151 3.57912 0.000473314 2.90888C0.000473314 2.1374 0.306957 1.39751 0.852501 0.851992C1.39805 0.30647 2.13796 0 2.90948 0C3.60764 0.00872665 4.27671 0.290888 4.77124 0.785398Z" fill="white"/>
</svg>
