<svg width="40" height="40" viewBox="0 0 40 40" fill="none" xmlns="http://www.w3.org/2000/svg">
<path d="M21.668 15H30.8346L21.668 5.83337V15ZM10.0013 3.33337H23.3346L33.3346 13.3334V33.3334C33.3346 34.2174 32.9834 35.0653 32.3583 35.6904C31.7332 36.3155 30.8854 36.6667 30.0013 36.6667H10.0013C9.11725 36.6667 8.2694 36.3155 7.64428 35.6904C7.01916 35.0653 6.66797 34.2174 6.66797 33.3334V6.66671C6.66797 5.78265 7.01916 4.93481 7.64428 4.30968C8.2694 3.68456 9.11725 3.33337 10.0013 3.33337ZM18.218 20.7334C18.9013 22.2334 19.768 23.4667 20.768 24.3167L21.4513 24.85C20.0013 25.1167 18.0013 25.5834 15.8846 26.4L15.7013 26.4667L16.5346 24.7334C17.2846 23.2834 17.8346 21.9667 18.218 20.7334ZM29.018 27.0834C29.318 26.7834 29.468 26.4 29.4846 25.9834C29.5346 25.65 29.4513 25.3334 29.2846 25.0667C28.8013 24.2834 27.5513 23.9167 25.4846 23.9167L23.3346 24.0334L21.8846 23.0667C20.8346 22.2 19.8846 20.6834 19.218 18.8L19.2846 18.5667C19.8346 16.35 20.3513 13.6667 19.2513 12.5667C19.1168 12.4361 18.9576 12.3334 18.7831 12.2648C18.6086 12.1961 18.4221 12.1628 18.2346 12.1667H17.8346C17.218 12.1667 16.668 12.8167 16.518 13.45C15.9013 15.6667 16.268 16.8834 16.8846 18.9V18.9167C16.468 20.3834 15.9346 22.0834 15.0846 23.8L13.4846 26.8L12.0013 27.6167C10.0013 28.8667 9.0513 30.2667 8.86797 31.15C8.8013 31.4667 8.83464 31.75 8.9513 32.05L9.0013 32.1334L9.8013 32.65L10.5346 32.8334C11.8846 32.8334 13.418 31.25 15.4846 27.7167L15.7846 27.6C17.5013 27.05 19.6346 26.6667 22.5013 26.35C24.218 27.2 26.2346 27.5834 27.5013 27.5834C28.2346 27.5834 28.7346 27.4 29.018 27.0834ZM28.3346 25.9L28.4846 26.0834C28.468 26.25 28.418 26.2667 28.3346 26.3H28.268L27.9513 26.3334C27.1846 26.3334 26.0013 26.0167 24.7846 25.4834C24.9346 25.3167 25.0013 25.3167 25.168 25.3167C27.5013 25.3167 28.168 25.7334 28.3346 25.9ZM13.0513 28.3334C11.968 30.3167 10.9846 31.4167 10.2346 31.6667C10.318 31.0334 11.068 29.9334 12.2513 28.85L13.0513 28.3334ZM18.0846 16.8167C17.7013 15.3167 17.6846 14.1 17.968 13.4L18.0846 13.2L18.3346 13.2834C18.618 13.6834 18.6513 14.2167 18.4846 15.1167L18.4346 15.3834L18.168 16.75L18.0846 16.8167Z" fill="white"/>
</svg>
