<svg width="1920" height="443" viewBox="0 0 1920 443" fill="none" xmlns="http://www.w3.org/2000/svg" xmlns:xlink="http://www.w3.org/1999/xlink">
<path d="M0 7.02143e-05C0 7.02143e-05 120.982 0.319765 198.5 7.02143e-05C846.271 -2.67141 1815.15 7.02143e-05 1850.5 7.02143e-05C1885.85 7.02143e-05 1920 7.02143e-05 1920 7.02143e-05V379C1920 414.346 1891.35 443 1856 443H64.0001C28.6538 443 0 414.346 0 379V7.02143e-05Z" fill="#605BCD"/>
<path d="M0 7.02143e-05H1920V443H0V7.02143e-05Z" fill="url(#pattern0_1009_431)"/>
<defs>
<pattern id="pattern0_1009_431" patternUnits="userSpaceOnUse" viewBox="1635.72 -405 382.691 173.626" width="19.931805928548176%" height="39.088517244435465%" patternContentUnits="objectBoundingBox">
<g id="pattern0_1009_431_inner">
<path opacity="0.12" d="M1256.29 -378.764C1256.29 -381.281 1256.75 -383.584 1257.68 -385.675C1258.6 -387.765 1259.9 -389.556 1261.56 -391.049C1263.24 -392.557 1265.24 -393.723 1267.57 -394.547C1269.92 -395.372 1272.52 -395.784 1275.36 -395.784C1278.19 -395.784 1280.78 -395.372 1283.12 -394.547C1285.47 -393.723 1287.47 -392.557 1289.14 -391.049C1290.82 -389.556 1292.12 -387.765 1293.04 -385.675C1293.97 -383.584 1294.43 -381.281 1294.43 -378.764C1294.43 -376.233 1293.97 -373.908 1293.04 -371.79C1292.12 -369.685 1290.82 -367.872 1289.14 -366.351C1287.47 -364.83 1285.47 -363.642 1283.12 -362.789C1280.78 -361.95 1278.19 -361.531 1275.36 -361.531C1272.52 -361.531 1269.92 -361.95 1267.57 -362.789C1265.24 -363.642 1263.24 -364.83 1261.56 -366.351C1259.9 -367.872 1258.6 -369.685 1257.68 -371.79C1256.75 -373.908 1256.29 -376.233 1256.29 -378.764ZM1263.05 -378.764C1263.05 -377.044 1263.36 -375.494 1263.97 -374.115C1264.6 -372.735 1265.46 -371.555 1266.55 -370.574C1267.66 -369.607 1268.96 -368.861 1270.45 -368.335C1271.96 -367.808 1273.6 -367.545 1275.36 -367.545C1277.12 -367.545 1278.75 -367.808 1280.24 -368.335C1281.75 -368.861 1283.05 -369.607 1284.15 -370.574C1285.24 -371.555 1286.1 -372.735 1286.73 -374.115C1287.35 -375.494 1287.67 -377.044 1287.67 -378.764C1287.67 -380.485 1287.35 -382.027 1286.73 -383.392C1286.1 -384.758 1285.24 -385.909 1284.15 -386.848C1283.05 -387.8 1281.75 -388.526 1280.24 -389.023C1278.75 -389.521 1277.12 -389.77 1275.36 -389.77C1273.6 -389.77 1271.96 -389.521 1270.45 -389.023C1268.96 -388.526 1267.66 -387.8 1266.55 -386.848C1265.46 -385.909 1264.6 -384.758 1263.97 -383.392C1263.36 -382.027 1263.05 -380.485 1263.05 -378.764ZM1299.97 -378.764C1299.97 -381.281 1300.44 -383.584 1301.36 -385.675C1302.28 -387.765 1303.58 -389.556 1305.24 -391.049C1306.92 -392.557 1308.92 -393.723 1311.26 -394.547C1313.6 -395.372 1316.2 -395.784 1319.04 -395.784C1321.87 -395.784 1324.46 -395.372 1326.8 -394.547C1329.15 -393.723 1331.16 -392.557 1332.82 -391.049C1334.5 -389.556 1335.8 -387.765 1336.72 -385.675C1337.65 -383.584 1338.11 -381.281 1338.11 -378.764C1338.11 -376.518 1337.74 -374.435 1337 -372.515C1336.27 -370.61 1335.24 -368.918 1333.91 -367.439L1339.9 -362H1331.33L1329.26 -363.877C1327.81 -363.109 1326.23 -362.526 1324.52 -362.128C1322.82 -361.73 1320.99 -361.531 1319.04 -361.531C1316.2 -361.531 1313.6 -361.95 1311.26 -362.789C1308.92 -363.642 1306.92 -364.83 1305.24 -366.351C1303.58 -367.872 1302.28 -369.685 1301.36 -371.79C1300.44 -373.908 1299.97 -376.233 1299.97 -378.764ZM1306.73 -378.764C1306.73 -377.044 1307.04 -375.494 1307.65 -374.115C1308.28 -372.735 1309.14 -371.555 1310.23 -370.574C1311.34 -369.607 1312.64 -368.861 1314.14 -368.335C1315.64 -367.808 1317.28 -367.545 1319.04 -367.545C1320.93 -367.545 1322.66 -367.844 1324.22 -368.441L1314.67 -377.101H1323.24L1329.04 -371.832C1329.77 -372.757 1330.33 -373.795 1330.73 -374.946C1331.14 -376.112 1331.35 -377.385 1331.35 -378.764C1331.35 -380.485 1331.03 -382.027 1330.41 -383.392C1329.78 -384.758 1328.92 -385.909 1327.83 -386.848C1326.73 -387.8 1325.43 -388.526 1323.92 -389.023C1322.43 -389.521 1320.8 -389.77 1319.04 -389.77C1317.28 -389.77 1315.64 -389.521 1314.14 -389.023C1312.64 -388.526 1311.34 -387.8 1310.23 -386.848C1309.14 -385.909 1308.28 -384.758 1307.65 -383.392C1307.04 -382.027 1306.73 -380.485 1306.73 -378.764ZM1344.36 -395.336H1351.12V-376.973C1351.12 -375.465 1351.32 -374.122 1351.74 -372.942C1352.15 -371.776 1352.76 -370.787 1353.57 -369.977C1354.4 -369.166 1355.41 -368.548 1356.62 -368.121C1357.83 -367.709 1359.24 -367.503 1360.84 -367.503C1362.44 -367.503 1363.84 -367.709 1365.05 -368.121C1366.27 -368.548 1367.29 -369.166 1368.1 -369.977C1368.92 -370.787 1369.54 -371.776 1369.95 -372.942C1370.36 -374.122 1370.57 -375.465 1370.57 -376.973V-395.336H1377.33V-376.162C1377.33 -373.972 1376.96 -371.982 1376.22 -370.19C1375.48 -368.399 1374.41 -366.863 1373 -365.583C1371.59 -364.303 1369.87 -363.315 1367.82 -362.619C1365.79 -361.922 1363.46 -361.573 1360.84 -361.573C1358.23 -361.573 1355.9 -361.922 1353.85 -362.619C1351.82 -363.315 1350.09 -364.303 1348.69 -365.583C1347.28 -366.863 1346.21 -368.399 1345.47 -370.19C1344.73 -371.982 1344.36 -373.972 1344.36 -376.162V-395.336ZM1411.46 -395.336H1418.62L1434.75 -362H1427.65L1424.98 -367.609H1405.51L1402.93 -362H1395.8L1411.46 -395.336ZM1422.31 -373.176L1415.1 -388.319L1408.09 -373.176H1422.31ZM1439.93 -395.336H1456.89C1459.45 -395.336 1461.66 -395.066 1463.54 -394.526C1465.42 -394 1466.98 -393.232 1468.21 -392.222C1469.45 -391.213 1470.37 -389.983 1470.96 -388.533C1471.58 -387.082 1471.88 -385.44 1471.88 -383.606C1471.88 -382.369 1471.73 -381.189 1471.43 -380.065C1471.13 -378.956 1470.67 -377.932 1470.05 -376.994C1469.44 -376.055 1468.66 -375.217 1467.72 -374.477C1466.78 -373.752 1465.68 -373.148 1464.42 -372.664L1471.67 -362H1463.39L1457.12 -371.47H1456.93L1446.69 -371.491V-362H1439.93V-395.336ZM1457.06 -377.335C1458.34 -377.335 1459.45 -377.484 1460.41 -377.783C1461.37 -378.082 1462.18 -378.501 1462.82 -379.041C1463.47 -379.582 1463.95 -380.236 1464.27 -381.004C1464.59 -381.786 1464.76 -382.653 1464.76 -383.606C1464.76 -385.468 1464.12 -386.905 1462.84 -387.914C1461.56 -388.938 1459.63 -389.45 1457.06 -389.45H1446.69V-377.335H1457.06ZM1479.86 -395.336H1486.62L1507.39 -384.459V-395.336H1514.15V-362H1507.39V-377.293L1486.62 -388.106V-362H1479.86V-395.336ZM1534.95 -395.336H1542.12L1558.24 -362H1551.14L1548.47 -367.609H1529L1526.42 -362H1519.29L1534.95 -395.336ZM1545.81 -373.176L1538.6 -388.319L1531.58 -373.176H1545.81Z" fill="url(#paint0_radial_1009_431)"/>
</g>
<use xlink:href="#pattern0_1009_431_inner" transform="translate(382.691 0)"/>
<use xlink:href="#pattern0_1009_431_inner" transform="translate(191.345 86.8131)"/>
<use xlink:href="#pattern0_1009_431_inner" transform="translate(574.036 86.8131)"/>
</pattern><radialGradient id="paint0_radial_1009_431" cx="0" cy="0" r="1" gradientUnits="userSpaceOnUse" gradientTransform="translate(1406.1 -367.255) scale(153.076 37.7448)">
<stop stop-color="#999999"/>
<stop offset="1" stop-color="white"/>
</radialGradient>
</defs>
</svg>
